<?xml version="1.0" encoding="UTF-8" standalone="no"?>
<!-- Created with Inkscape (http://www.inkscape.org/) -->

<svg
   xmlns:dc="http://purl.org/dc/elements/1.1/"
   xmlns:cc="http://creativecommons.org/ns#"
   xmlns:rdf="http://www.w3.org/1999/02/22-rdf-syntax-ns#"
   xmlns:svg="http://www.w3.org/2000/svg"
   xmlns="http://www.w3.org/2000/svg"
   xmlns:sodipodi="http://sodipodi.sourceforge.net/DTD/sodipodi-0.dtd"
   xmlns:inkscape="http://www.inkscape.org/namespaces/inkscape"
   width="107.97688mm"
   height="135.61394mm"
   viewBox="0 0 107.97688 135.61394"
   version="1.1"
   id="svg8"
   sodipodi:docname="logo.svg"
   inkscape:version="0.92.4 (5da689c313, 2019-01-14)">
  <defs
     id="defs2" />
  <sodipodi:namedview
     id="base"
     pagecolor="#ffffff"
     bordercolor="#666666"
     borderopacity="1.0"
     inkscape:pageopacity="0.0"
     inkscape:pageshadow="2"
     inkscape:zoom="0.7"
     inkscape:cx="-256.95929"
     inkscape:cy="357.24545"
     inkscape:document-units="mm"
     inkscape:current-layer="layer1"
     showgrid="false"
     inkscape:window-width="1920"
     inkscape:window-height="1027"
     inkscape:window-x="-8"
     inkscape:window-y="-8"
     inkscape:window-maximized="1"
     inkscape:snap-global="false" />
  <metadata
     id="metadata5">
    <rdf:RDF>
      <cc:Work
         rdf:about="">
        <dc:format>image/svg+xml</dc:format>
        <dc:type
           rdf:resource="http://purl.org/dc/dcmitype/StillImage" />
        <dc:title></dc:title>
      </cc:Work>
    </rdf:RDF>
  </metadata>
  <g
     inkscape:label="Layer 1"
     inkscape:groupmode="layer"
     id="layer1"
     transform="translate(-241.09322,-31.288013)">
    <g
       id="g894">
      <circle
         r="53.988441"
         cy="112.51177"
         cx="295.08167"
         id="path901"
         style="opacity:1;fill:#d4dbe1;fill-opacity:1;stroke:none;stroke-width:0.5;stroke-linecap:round;stroke-linejoin:round;stroke-miterlimit:4;stroke-dasharray:1.00000001, 1.00000001;stroke-dashoffset:0;stroke-opacity:1;paint-order:markers stroke fill" />
      <path
         sodipodi:nodetypes="ccccccccccccscscscscsccccccccccccccccsccccscc"
         inkscape:connector-curvature="0"
         transform="scale(0.26458333)"
         id="path921"
         d="m 1231.7441,259.30664 c -0.4187,-0.32064 -0.8386,-0.63965 -1.2597,-0.95703 -5.6149,-3.8417 -11.4183,-13.46109 -17.3887,-16.72303 -5.97,-3.26131 -6.7961,-4.95935 -13.0619,-7.60839 -6.2661,-2.64933 -10.388,-8.26663 -16.8874,-10.27714 -6.4989,-2.01066 -12.3368,-2.43237 -19.004,-3.78419 -4.143,-0.75766 -11.3388,0.63344 -15.5207,0.13359 -0.5079,0.48162 -6.6646,6.15834 -31.1412,28.14197 -27.2742,24.4962 -61.8711,33.08203 -61.8711,33.08203 0,0 -5.0499,10.85923 -8.8379,22.72852 -3.7881,11.8693 -17.6777,36.87109 -17.6777,36.87109 l -6.0626,13.13282 c 10e-5,-10e-6 10e-5,0.50494 -2.5253,16.91992 -2.5254,16.41498 0,55.30468 0,55.30468 0,0 -1.5147,-2.77737 -5.3028,-10.35351 -3.7881,-7.57614 -10.3535,-28.03125 -10.3535,-28.03125 0,0 -11.11231,-2.02149 -14.90038,-2.02149 -3.78811,0 -13.38519,-0.25111 -19.95117,7.83008 -6.56599,8.08124 4.79946,35.10242 17.17383,53.28516 12.37436,18.18274 25.50582,28.53711 25.50582,28.53711 0,0 2.5256,15.65593 5.8086,31.81836 3.2545,16.02206 1.0601,98.05518 1.0215,99.49218 5.3144,2.86486 10.7534,5.49245 16.3008,7.875 6.2661,2.64933 12.6609,4.98363 19.1602,6.99415 6.499,2.01 13.0945,3.69374 19.7617,5.04492 6.6676,1.35185 13.3986,2.3694 20.1679,3.04883 6.7691,0.67922 13.568,1.01949 20.3711,1.01953 4.8157,-2e-4 9.6299,-0.17088 14.4336,-0.51172 6.7861,-0.48096 13.5439,-1.30099 20.2481,-2.45703 6.7045,-1.15686 13.3468,-2.6483 19.9023,-4.46875 2.1417,-0.67248 4.2722,-1.38026 6.3906,-2.12305 -1.2828,-5.76036 -3.0303,-13.81127 -3.205,-16.43359 -0.2525,-3.78811 0,-32.07227 0,-32.07227 l 25.2539,-10.85937 9.8496,-7.32422 31.0625,-36.61719 c 0,0 8.8389,-14.64712 12.6269,-27.02148 3.7881,-12.37437 2.019,-73.23536 2.2715,-79.54883 0.2525,-6.31344 6.3145,-21.4668 6.3145,-21.4668 0,0 1.5151,-6.81915 1.7675,-9.84961 0.2526,-3.03043 2.0196,-17.67578 2.0196,-17.67578 l 0.5058,-6.0625 c 0,0 -2.7783,-27.27308 -4.041,-38.38477 -1.2627,-11.11167 -2.7768,-21.4667 -23.2324,-51.01367 -1.9783,-2.8575 -3.8403,-5.24762 -5.6934,-7.61328 z"
         style="fill:#ffffff;fill-opacity:1;stroke:none;stroke-width:0.99999994px;stroke-linecap:butt;stroke-linejoin:miter;stroke-opacity:1" />
      <path
         inkscape:connector-curvature="0"
         id="path883"
         d="m 279.96483,39.819894 c 0,0 -7.95126,1.202714 -12.89577,5.412208 -4.94447,4.209497 -6.68173,8.71967 -7.45013,10.924644 -0.7684,2.204973 -1.23612,5.746294 -1.23612,5.746294 0,0 -4.24107,4.956704 -4.85528,11.524041 -0.61421,6.567337 -0.70871,12.425968 -0.70871,12.425968 l 0.75595,-2.55134 c 0,0 0.66146,5.953125 2.12612,7.843007 1.46466,1.889879 2.83482,3.638021 2.83482,3.638021 l 0.8032,1.653646 -0.18899,5.764137 c 0,0 2.45685,-0.33073 3.77976,-0.0472 1.32292,0.28348 2.69309,0.8977 2.69309,0.8977 0,0 2.69306,7.60677 3.59077,8.55171 0.8977,0.94494 1.03944,1.18117 1.03944,1.18117 0,0 -1.0867,-9.59114 -0.23625,-13.748881 0.85045,-4.157739 1.55917,-7.79576 1.55917,-7.79576 l 1.37014,-2.220611 c 0,0 5.6224,-10.252604 5.81139,-12.425965 0.18899,-2.173364 0.33073,-2.456847 0.33073,-2.456847 0,0 3.59079,-0.519716 11.10305,-4.535712 7.51229,-4.016 13.51264,-11.150299 13.51264,-11.150299 0,0 3.77979,-0.94494 6.5201,-0.377975 2.74032,0.566962 6.66184,2.69308 6.89806,2.929313 0.23625,0.236236 1.27569,1.370166 1.27569,1.370166 0,0 5.71688,2.456844 9.26042,8.031993 3.54351,5.575149 4.5357,6.378347 5.81136,14.174107 1.27569,7.795758 1.32292,10.48884 1.32292,10.48884 0,0 2.12613,-6.992561 2.22062,-8.598958 0.0945,-1.606399 0.23624,-2.078871 0.23624,-2.078871 l 0.99219,3.260045 c 0,0 1.22841,-4.913691 1.03942,-8.551712 -0.189,-3.63802 -0.189,-3.590774 -0.189,-3.77976 0,-0.188989 -0.94493,-5.480656 -0.94493,-5.480656 0,0 1.65365,1.653646 1.84264,2.220611 0.18899,0.566965 0.80319,2.362351 0.80319,2.362351 0,0 0.89771,-12.284226 -2.97656,-16.914434 -3.87424,-4.630209 -6.14211,-4.582962 -6.14211,-4.582962 0,0 2.36235,-0.944941 2.3151,-1.181177 -0.0472,-0.236233 -3.44903,-1.700892 -4.5357,-1.700892 -1.0867,0 -0.8977,0 -1.13392,0 -0.23625,0 -1.22844,0.188989 -1.22844,0.188989 0,0 1.88989,-6.803572 -1.32291,-9.874628 -3.21281,-3.071056 -3.63803,-3.449032 -3.63803,-3.449032 l 2.03163,5.197171 c 0,0 -7.9375,-6.472841 -10.11086,-7.181546 -2.17337,-0.708707 -1.60639,-0.566965 -2.22062,-0.708707 -0.61421,-0.14174 -2.2206,-0.14174 -2.2206,-0.14174 0,0 -7.9375,-0.708705 -16.06399,1.086681 -8.12649,1.795388 -13.58093,4.662902 -13.58093,4.662902 z"
         style="fill:#a8b3ba;fill-opacity:1;stroke:none;stroke-width:0.26458332px;stroke-linecap:butt;stroke-linejoin:miter;stroke-opacity:1" />
      <path
         sodipodi:nodetypes="cccccsccccscccccscccccccccsccccccccscccccccccccccccccccscccccccccccccsccccsccccccccccccccccscccccccscccccccscccccccccccsccscccccccccccccccccccccccscccccccccccccccscccccccccccccccccccccccccscccccccccccscccscscccccccccccccscscccccccccccccccsccccscsccccccscsccccccccccccccccccccccccccscsscsccscccccsccccccccccccccccccccccccccscccscccscccccccccccccccc"
         inkscape:connector-curvature="0"
         id="path934"
         transform="scale(0.26458333)"
         d="m 1152.6543,118.25391 c -5.8929,0 -2.3242,1.96484 -2.3242,1.96484 0,0 3.3113,1.42629 13.0149,5.19 -24.4445,-0.27084 -42.0032,1.8488 -61.0501,5.34516 -33.5714,6.42857 -44.6426,17.5 -44.6426,17.5 0,0 -21.6077,3.92997 -39.4648,13.03711 -17.8571,9.10715 -30.89094,28.74888 -37.49805,44.82031 -6.60718,16.07143 -5.89423,25.00083 -5.53711,27.32226 0.0151,0.097 0.0397,0.17453 0.0586,0.25586 -15.87298,20.26195 -32.8675,71.50931 -18.67355,104.96625 0.18644,-0.35733 0.95537,1.04626 1.09535,-0.43031 0.28147,-2.96915 -0.0334,-8.77399 0.52937,-14.07305 0.14929,1.88278 0.4296,3.84561 0.91992,5.88868 2.61865,12.91846 10.22214,22.75868 18.15235,32.64453 0.41793,9.76021 -0.0321,18.79527 -0.26563,22.63867 -1.05434,0.36737 -2.08275,0.80061 -3.06641,1.32226 -11.7857,6.25002 -8.75111,21.78627 -3.92968,35.71485 4.55546,13.1602 33.80934,51.48751 42.89844,55.22656 0.5103,6.83093 4.4107,31.04632 4.6035,64.09375 -0.1878,18.22158 -2.0454,47.24026 -2.9883,60.96289 4.7172,2.82013 9.0721,4.87449 9.127,4.90039 0.1821,-14.51717 0.6218,-61.50841 -1.0879,-87.58203 -1.5735,-23.9958 -6.3233,-37.30351 -8.3652,-42.06836 0.034,-6.8e-4 0.07,0.004 0.1015,0.002 4.1205,-0.3171 7.1584,-1.45006 9.4863,-2.72656 2.2237,4.6763 11.5954,22.97416 29.7989,40.40625 21.0714,20.1786 40.3577,34.46457 61.9648,42.85742 3.6936,1.43471 6.0481,2.29474 7.4531,2.72852 0.7556,0.38789 1.3124,0.68136 1.5645,0.8418 1.9642,1.24981 2.2324,0.17968 2.2324,0.17968 0,0 5.8929,2.23076 8.75,3.83789 2.8572,1.60714 4.2852,0 4.2852,0 0,0 7.0542,3.83927 9.4648,5 2.4109,1.1607 2.2321,-1.7846 2.5,-1.07031 0.268,0.71429 2.6788,3.57142 4.7324,5 2.0536,1.42855 2.5881,-0.35742 2.9454,-0.35742 0.3571,0 1.0727,1.33982 2.4121,1.96484 1.3392,0.62502 4.8203,-1.69726 4.8203,-1.69726 0,0 0.8041,1.51816 1.9648,2.23242 0.3024,0.18595 0.6346,0.204 0.9863,0.14844 0,4.30586 0.074,32.67606 1.0665,35.65429 1.0714,3.2143 4.2851,8.9283 4.9101,7.14258 0.625,-1.78571 -0.5357,-28.74943 -0.625,-35.53515 -0.089,-6.78569 0.7149,-9.375 0.7149,-9.375 0,0 0.4468,0.17949 0.7148,1.42968 0.268,1.25016 2.4102,-0.17968 2.4102,-0.17968 0,0 0.4475,-0.80302 0.8046,0.71484 0.3572,1.51786 4.1064,-1.16043 6.4278,-2.14258 2.3214,-0.98203 2.3208,-2.05384 3.0351,0.26758 0.7143,2.32146 5.1792,-2.67771 6.9649,-4.55273 1.7857,-1.87499 6.4294,-8.12532 7.3222,-9.10743 0.144,-0.15874 0.3519,-0.59546 0.5821,-1.1289 9.0402,-7.61208 36.1737,-33.56463 43.1679,-51.28321 8.0357,-20.35714 8.928,-26.60546 9.2852,-57.85546 0.1002,-8.75641 0.01,-15.12215 -0.1133,-20.4043 3.4009,0.6751 7.2199,1.11719 11.5391,1.11719 12.4999,0 18.3038,-2.49918 24.1074,-6.42774 5.8036,-3.92859 11.2506,-15.17907 11.9648,-17.58984 0.2314,-0.78059 0.4113,-2.44001 0.5489,-4.46875 1.1703,-0.10469 4.364,-2.58814 5.2539,-3.83399 0.8928,-1.25 1.2498,-7.59037 -0.3574,-8.92968 -0.4952,-0.41261 -2.2744,-0.79386 -4.6387,-1.13477 0,-0.1149 -7e-4,-0.27101 0,-0.38281 -0.1788,-5.98212 -2.6778,-9.55274 -2.6778,-9.55274 0,0 -0.09,-5.7e-4 -1.6074,-2.58984 -1.5178,-2.58928 -8.483,-5.80413 -14.8222,-7.58984 -4.3118,-1.21459 -11.9847,-3.27534 -18.6875,-4.53907 0.1474,-0.64433 0.2978,-1.26233 0.4511,-1.82812 1.9181,-7.07301 6.5606,-18.5853 7.2422,-30.75391 0.4116,5.34845 0.586,10.2806 0.586,12.44531 0,4.16686 8.4605,-13.38567 9.4707,-24.37109 0.9062,-9.85546 -3.6741,-43.77507 -4.668,-50.9668 0.2082,0.36526 0.4263,0.72406 0.6269,1.0918 3.7881,6.94477 6.0617,23.1069 7.7032,23.35938 1.6415,0.25247 3.5363,-10.1021 3.0312,-24.62305 -0.5051,-14.52094 0.6311,-28.91492 -8.334,-47.09766 -5.4946,-11.14406 -12.165,-16.39246 -16.5136,-18.79687 l 3.8867,1.62305 c 8.4599,3.53553 9.8485,5.43083 8.207,2.40039 -1.6415,-3.03046 -10.7328,-13.89046 -22.3496,-18.1836 -11.6168,-4.29316 -16.0977,-1.54492 -16.0977,-1.54492 0,0 4.2855,-15.35688 -4.1074,-30.89258 -8.3928,-15.53572 -26.4285,-26.25083 -32.5,-28.57226 -6.0714,-2.32143 -5.1794,-0.17912 -4.8222,0.53515 0.3571,0.7143 0,2.8e-4 7.1445,5.35742 6.8796,5.15975 14.2563,16.8587 14.8027,17.73243 -0.8101,-1.20708 -4.6251,-6.20779 -17.125,-14.69532 -16.5007,-8.89957 -37.6482,-18.94446 -50.8945,-18.92968 z m 3.2129,13.08984 c 17.3821,-0.0257 23.228,1.76374 26.709,2.79687 14.5577,5.56355 26.3657,9.52944 46.3261,35.00586 0,0 2.5,0.35826 2.5,-4.82031 0,-5.17857 -5.5351,-12.67969 -5.5351,-12.67969 11.3116,10.91866 12.114,24.26331 7.5,42.67969 2.9953,-2.47456 6.0452,-1.9043 9.7519,-1.90429 6.566,0 10.6055,1.38867 10.6055,1.38867 l -7.4492,2.39843 c 0,0 -0.1274,3.1e-4 -2.0215,1.13672 -1.894,1.13642 14.0164,5.30304 19.1934,8.96485 5.177,3.6618 13.5131,14.01568 18.8164,29.16797 5.3033,15.15229 3.6601,36.49218 3.6601,36.49218 0,0 -1.5156,-4.04056 -4.041,-7.19726 -2.5254,-3.15674 -5.1765,-6.06144 -7.8281,-6.94532 -1.4232,-0.4744 -0.4659,1.31008 1.2637,4.06836 -1.2948,3.08009 0.2915,16.08162 0.3769,16.76563 l 2.6524,16.16211 c 2.6516,16.16247 0.6308,25.75976 0.6308,25.75976 0,0 -1.0107,-3.7875 -2.2734,-7.82812 -1.2627,-4.04062 -4.6724,-6.69328 -6.5664,-6.31445 -0.5766,0.11527 -0.715,0.52768 -0.586,1.26367 -0.015,7.2e-4 -0.03,-0.001 -0.045,0 0,0 0.8842,18.05611 -1.3887,33.46094 -0.1009,0.68406 -0.2232,1.31337 -0.3359,1.96679 l -2.3203,-0.79883 c -0.056,-0.0323 -0.3459,-0.19889 -0.4922,-0.28515 -0.069,-1.51529 -0.1348,-2.77735 -0.1348,-2.77735 0,0 -1.5156,-35.35503 -9.0918,-53.66406 -7.5761,-18.309 -20.5818,-31.94544 -34.5976,-42.42578 -12.5629,-9.39384 -16.6877,-8.65114 -18.5938,-8.39453 -0.4423,-3.11626 -6.0842,-13.14032 -22.4433,-16.73438 -14.4418,-3.17283 -27.3291,-0.7576 -30.5235,-0.0547 3.7886,-6.03037 4.1661,-10.48009 4.3555,-11.49024 -7.6786,16.25 -46.647,50.31725 -78.6113,63.88867 -31.9643,13.57145 -43.392,7.67914 -46.4278,9.46485 -3.0357,1.78571 1.7858,6.07253 21.25,3.92969 0.4446,-0.049 0.8336,-0.0979 1.2598,-0.14649 -1.0743,4.37722 -5.3085,19.4639 -17.6894,43.18164 -14.8215,28.39287 -29.8209,35.35741 -34.2852,39.10742 -4.46426,3.75001 4.8209,1.60574 11.7852,-3.03711 3.1703,-2.11358 7.4213,-6.39296 12.2832,-12.36132 -1.2336,3.58594 -3.0918,9.74253 -4.9688,18.64453 -19.94954,4.50085 -31.23397,9.64211 -36.1328,12.62109 0.0476,-4.48187 -0.13607,-12.1081 -1.41992,-23.58789 -2.14655,-19.19289 -7.19922,-26.51758 -7.19922,-26.51758 -0.88388,-1.01015 -1.09323,2.85198 1.89453,16.79492 0.40195,1.87567 0.71242,3.953 0.95703,6.13477 -2.68653,-2.53901 -11.56518,-11.85604 -13.98438,-26.37109 -2.57336,-15.44017 0.64564,-24.06626 0.13672,-24.19336 0.0446,-0.0888 0.0855,-0.18456 0.13086,-0.27149 0,0 -0.17188,0.24302 -0.20703,0.29102 -0.0582,0.0385 -0.13667,0.11986 -0.24023,0.24609 -0.21884,0.26721 -0.50131,0.70303 -0.81641,1.26758 -1.2709,1.86021 -3.22538,4.90065 -4.75586,7.99219 0.0151,-6.05258 0.88867,-16.8629 4.67969,-35.33203 6.96431,-33.92857 24.46484,-51.25 24.46484,-51.25 -2.45174,-0.1036 -5.08359,1.20074 -7.7539,3.54101 2.40929,-8.2997 10.84501,-34.3153 27.03908,-53.18359 19.4643,-22.67857 55.8926,-25.35742 55.8926,-25.35742 4.1071,-1.07144 10.1797,-7.32088 20.1796,-10.53516 10,-3.21428 32.1432,-6.96484 60.3575,-9.46484 5.2901,-0.46875 9.9716,-0.65401 14.1074,-0.66016 z m 7.6465,89.875 c 2.7693,0.0455 5.7476,0.30679 8.8965,0.875 14.1765,2.55818 26.0658,12.01046 29.2871,13.1582 0.2997,1.07774 5.6314,3.97779 15.1562,11.33789 11.1118,8.58629 24.2471,25.25455 33.086,42.67969 8.5673,16.89014 8.7059,43.90795 8.5917,49.47266 -1.7665,-0.77688 -3.5626,-1.44083 -4.9863,-1.64844 -4.2857,-0.62491 -6.9648,-0.53516 -6.9648,-0.53516 0,0 1.6081,-2.41074 1.4297,-4.375 -0.1784,-1.96433 -24.9998,5.26789 -29.6426,8.75 -4.643,3.48216 -4.3753,7.14315 -4.7324,9.73243 -0.1784,1.24996 4.6436,-2.23307 5.4472,-2.32227 0.8036,-0.0892 -1.0722,0.89258 -1.0722,0.89258 l -0.8926,1.33984 c -0.8929,1.33928 18.6618,-1.33893 19.5547,-1.16015 0.8928,0.17877 0.088,-0.002 12.5879,1.60546 10.0871,1.29691 14.1354,3.72956 15.3418,4.63086 0.011,0.0151 0.022,0.0266 0.033,0.0391 -1.0599,3.21634 -2.1168,5.95461 -2.9395,8.4375 -1.1406,-0.13455 -2.2093,-0.22657 -3.1484,-0.25 -7.0536,-0.1784 -21.1607,1.34066 -26.25,3.03711 -5.0893,1.6964 -11.3399,7.67773 -11.3399,7.67773 l -16.8535,-2.99609 c 0,0 -6.6936,-8.20829 -9.9765,-10.60743 -3.2831,-2.39913 -13.6371,-7.82882 -22.3497,-10.48046 -8.168,-2.48591 -35.8681,-7.85762 -50.1191,-7.79102 -0.9501,0.004 -1.8394,0.0358 -2.6602,0.0898 -13.132,0.88388 -21.7187,6.1875 -21.7187,6.1875 -2.0173,2.13597 -3.931,7.49196 -4.1621,8.15039 -3.0691,0.36057 -39.0563,4.64642 -68.8106,10.79102 2.0433,-11.87743 5.1058,-21.99454 7.0957,-27.8457 3.6782,-5.20256 7.5367,-11.09748 11.4297,-17.54883 9.6311,-15.96011 13.4054,-32.76226 14.6426,-39.68555 13.1282,-1.99865 18.1685,-5.35468 46.9649,-20.67187 18.9735,-10.0923 32.7493,-26.11117 41.1484,-38.13867 3.7607,-1.30921 9.9825,-2.95672 17.9277,-2.82618 z m 0.834,93.19531 c -1.7858,0 0.625,4.82227 0.625,4.82227 0,0 -20.8036,-5.62501 -45,-4.375 -24.1965,1.25 -28.5684,13.66015 -28.5684,13.66015 -1.3393,2.4107 10.0868,-3.48107 18.0332,-4.82031 7.9465,-1.33931 18.3057,-0.8041 31.6094,1.16016 13.3035,1.96433 27.409,11.78655 29.7304,12.32226 2.3217,0.53571 0.1778,-3.30468 0.1778,-3.30468 0,0 1.6973,0.89255 6.6972,4.01757 5.0001,3.12499 4.2857,1.69781 5.625,-0.71289 1.3393,-2.41073 -2.9467,-18.48354 -4.7324,-20.53711 -1.7857,-2.0536 -2.9472,2.85743 -2.9472,2.85743 0,0 -9.4643,-5.08985 -11.25,-5.08985 z m -40.3282,36.70313 c 2.476,-0.0189 5.2902,0.0642 8.4864,0.27734 17.0463,1.13643 38.1346,4.79689 47.4785,9.84766 9.3439,5.05073 16.0351,14.26887 16.0351,19.19336 0,4.92449 -6.9456,25.12679 -15.6582,29.41992 -8.7125,4.29316 -16.2868,3.91513 -25.2519,3.03125 -8.9651,-0.88388 -19.5734,-2.1475 -33.8418,-8.46094 -14.2684,-6.31347 -21.5909,-12.72157 -22.8535,-14.77344 -2.2485,-2.1163 1.7325,-19.58031 4.6718,-28.15625 2.0203,-5.55583 2.399,-6.56601 4.293,-7.57617 1.5389,-0.82072 5.9116,-2.72699 16.6406,-2.80273 z m 131.2559,19.72656 c 1.667,0.0151 3.2996,0.0899 4.9043,0.20898 0,0.0548 -0.014,0.11122 -0.014,0.16602 -0.1043,2.9246 0.038,7.56164 0.3281,11.68945 -0.2581,0.43412 -0.5195,0.88282 -0.5195,0.88282 0,0 -8.7488,16.96289 -8.5703,31.96289 0.023,1.79625 0.041,4.0763 0.051,6.63867 -4.9357,-1.13518 -8.604,-2.30095 -12.1055,-4.94141 -5.4464,-4.10717 -10.9805,-12.32199 -12.2305,-20.71484 -1.25,-8.39286 1.7852,-16.69727 1.7852,-16.69727 0,0 0.9821,-5.4453 13.125,-7.94531 4.5536,-0.93751 8.9939,-1.28557 13.2461,-1.25 z m 10.3672,0.79297 c 3.1736,0.43884 6.1802,1.01451 8.9746,1.61719 9.1071,1.96429 17.3208,3.57145 20.5351,7.5 1.2872,1.57326 2.1673,4.67065 2.7442,8.13281 -4.41,-0.35754 -9.2481,-0.59362 -13.0117,-0.63281 -8.3764,-0.0873 -21.0249,-0.42197 -21.6114,-0.4375 0.9193,-3.81309 1.4895,-6.94673 1.3457,-8.3125 -0.023,-0.23131 -0.071,-0.40084 -0.1289,-0.53516 0.3655,-2.43072 0.7513,-4.9301 1.1524,-7.33203 z m -197.8828,0.68359 c 10.5565,0.0661 18.8803,0.74804 22.9648,1.1543 -0.4704,3.8315 -0.8694,7.64037 -0.9922,10.50586 -0.3788,8.83884 1.5584,11.32606 8.2149,16.58398 7.4002,5.84534 30.9832,16.04261 49.166,19.57813 18.1827,3.53548 33.7538,-2.71016 38.4258,-4.73047 4.6719,-2.02027 12.6266,-17.17171 16.541,-23.99023 0.7213,-1.25658 1.244,-2.72458 1.6191,-4.28126 0.1765,-0.31747 0.3364,-0.65943 0.4707,-1.02929 1.0714,-2.94645 1.875,-3.39258 1.875,-3.39258 h 1.7871 c 1.7857,0 5.9813,0.71344 7.6778,1.42773 1.6964,0.71426 0.5348,6.69811 2.0527,11.51954 1.5179,4.82143 5.3597,16.5176 8.8418,20.26757 3.4822,3.75001 8.9269,7.41015 14.7305,9.91016 2.7816,1.19822 6.1783,2.65689 10.3164,3.85742 -0.053,19.8217 -0.6623,49.69863 -3.4414,61.23242 -3.5715,14.82146 -9.9978,26.07031 -24.6407,42.32032 -7.004,7.77275 -13.0559,15.16315 -17.1679,20.62109 0.5522,-1.83817 1.0039,-3.47115 1.0039,-3.83398 0,-0.98215 -3.8379,4.82031 -3.8379,4.82031 0,0 -0.4478,-1.07031 -1.1621,-1.07031 -0.7143,0 -4.1035,3.57031 -4.1035,3.57031 0,0 0.7132,-3.83844 0.4453,-5.80274 -0.268,-1.96429 -3.2168,5.08789 -3.2168,5.08789 l -0.3535,-0.53515 -0.7149,-0.35742 c -0.7142,-0.35717 -3.6601,3.75 -3.6601,3.75 v -1.16016 c 0,0 -0.09,8.3e-4 -1.0723,-0.80273 -0.9821,-0.80361 -4.4648,4.10546 -4.4648,4.10546 v -0.71289 c 0,0 0,-0.0892 -1.25,-1.51757 -1.2501,-1.42863 -4.1954,2.58789 -4.1954,2.58789 0,0 -0.4475,-3.83896 -1.4296,-5.26758 -0.9822,-1.42855 -3.3028,2.94726 -3.3028,2.94726 0,0 -0.1784,-2.9467 -0.625,-4.73242 -0.4464,-1.78571 -2.7676,-0.53711 -2.7676,-0.53711 0,0 -0.7156,-0.62387 -2.4121,-1.07031 -1.6964,-0.4464 -0.7129,5.71484 -0.7129,5.71484 0,0 -0.3575,-0.2691 -1.3398,-0.53711 -0.9822,-0.26796 -1.4277,2.32227 -1.4277,2.32227 0,0 -4.2874,-4.55326 -6.5196,-5.89258 -2.2323,-1.33927 -0.1777,4.73242 -0.1777,4.73242 0,0 -3.4816,-6.161 -4.9102,-7.23242 -1.4287,-1.07146 -1.1621,3.39258 -1.1621,3.39258 0,0 -2.2313,-4.10797 -3.3027,-4.82227 -1.0712,-0.71429 -1.25,0.80469 -1.25,0.80469 0,0 -1.9637,-0.71484 -3.0352,-0.71484 -1.0713,0 -0.09,1.875 -0.09,1.875 0,0 -1.9645,5.5e-4 -2.8574,0.71484 -0.8929,0.71429 1.25,5.26841 1.25,5.71485 0,0.4464 -6.6074,-7.05469 -6.6074,-7.05469 h -0.7129 c -0.5359,0 0.1777,3.57226 0.1777,3.57226 0,0 -1.3398,-1.34011 -2.5898,-2.32226 -1.2501,-0.98215 -2.5899,-0.0892 -4.4649,0 -1.875,0.0892 -0.9805,1.96484 -0.9805,1.96484 0,0 -4.4643,-4.28681 -5.625,-5.17969 -1.1607,-0.89283 -3.75,0.35743 -3.75,0.35743 0,0 -1.9648,-1.25024 -3.8398,-2.23243 -1.875,-0.98214 -0.7148,1.16211 -0.7148,1.16211 0,0 -3.7492,-2.14397 -5.1778,-2.67968 -1.4286,-0.53571 0,2.05468 0,2.05468 0,0 -2.0546,-1.51789 -3.9297,-2.5 -1.875,-0.98214 -2.4101,0.71289 -2.4101,0.71289 0,0.10999 0.019,0.22495 0.043,0.33985 -2.1162,-1.39828 -4.2617,-2.85083 -6.3828,-4.35742 -19.1071,-13.57142 -47.4991,-35.5357 -58.9277,-57.5 -4.3824,-8.42257 -7.5279,-12.1089 -9.7441,-13.46485 1.3177,-1.55595 -7.529,-0.14018 -13.6485,-0.82031 -6.4286,-0.71429 -26.60686,-28.39232 -35.89256,-45.53516 -9.28573,-17.14284 -8.75003,-30.89341 2.5,-35.71484 11.24999,-4.82143 21.24996,0.35742 21.24996,0.35742 l 0.8418,0.39258 c 0.7634,5.02099 2.1671,10.70025 3.6211,13.53516 2.8572,7.49998 14.2866,33.03541 18.5723,33.39257 4.2857,0.35717 -1.4288,-11.2494 -2.8574,-41.78515 -0.3145,-6.71872 0.056,-13.44591 0.8086,-19.86524 2.5823,-0.45063 5.3005,-0.91043 8.2988,-1.38476 13.0115,-2.05833 25.7989,-2.60735 36.3555,-2.54102 z m -50.7461,5.0293 c -2.7044,18.42492 0.9961,38.76172 0.9961,38.76172 -15.3572,-32.14281 -10.8915,-32.49974 -14.4629,-34.64258 -0.9536,-0.41359 -1.2614,1.38332 -1.1465,4.15039 -1.8438,-0.4893 -5.8847,-1.43036 -10.70118,-1.78711 0.88331,-0.40369 6.55349,-2.92604 25.31448,-6.48242 z m 192.5078,8.74414 c -0.1346,-0.0378 -0.2491,0.0847 -0.3496,0.375 0,0 -3.1256,3.125 -1.3399,12.5 1.7857,9.375 5.6264,22.14225 8.0371,26.16016 2.4107,4.01782 5.7129,6.69755 5.0879,9.55468 -0.625,2.85714 -2.9467,7.76645 -10.9824,9.46289 -8.0357,1.69641 -12.32,1.69671 -12.5879,3.48243 -0.2679,1.78571 3.3022,3.66183 10.7129,2.67968 7.4108,-0.98214 15.6256,-6.16207 17.5899,-11.78711 1.9642,-5.62499 0.9824,-6.51783 0.09,-8.125 -0.8928,-1.60713 -7.5005,-10.62386 -10.7148,-24.19531 -2.8125,-11.87497 -4.5999,-19.85351 -5.5411,-20.10742 z m 52.2558,7.43164 c 13.1338,0.50302 24.4667,0.85618 36.5918,4.55078 0,0 0.3197,1.38482 0.4239,2.04688 0,1.1294 -0.013,2.16827 -0.068,2.95312 -0.3572,4.99998 -7.2313,16.69616 -13.3027,19.01758 -6.0715,2.32142 -13.9286,4.82089 -24.375,2.41016 -1.831,-0.42255 -3.3609,-0.74348 -4.9297,-1.08008 -0.1852,-7.9033 -0.096,-12.18153 1.7148,-17.3125 1.314,-3.72299 2.7339,-8.2653 3.9453,-12.58594 z"
         style="fill:#375a5c;fill-opacity:1;stroke:none;stroke-width:0.99999994px;stroke-linecap:butt;stroke-linejoin:miter;stroke-opacity:1" />
      <path
         transform="scale(0.26458333)"
         inkscape:connector-curvature="0"
         id="path857"
         d="m 1274.2799,297.08598 c -3.7848,-4.77752 -23.4422,-25.62604 -40.6541,-43.11757 -9.8612,-10.0214 -19.4903,-17.00411 -26.1101,-18.93411 -2.3069,-0.6726 -4.5733,-1.84129 -5.0363,-2.59709 -6.9423,-11.333 -22.8048,-17.36448 -42.3392,-16.09891 -4.863,0.31507 -8.8418,0.35908 -8.8418,0.0978 0,-0.26126 0.7434,-1.60963 1.652,-2.99639 2.7285,-4.16423 0.8834,-3.81533 -2.0261,0.38314 -1.482,2.1385 -3.936,5.04194 -5.4534,6.45208 -2.6254,2.43985 -3.1009,2.52392 -9.8299,1.73781 -35.0873,-4.09905 -77.9807,3.79628 -111.08,20.44635 -21.7221,10.92698 -36.8162,21.82323 -53.8274,38.85743 -6.25032,6.25878 -11.36422,11.22565 -11.36422,11.0375 0,-2.50247 4.79173,-23.10264 6.70271,-28.81571 3.21565,-9.61349 10.67588,-24.08404 15.68053,-30.4154 2.1344,-2.70022 3.88073,-5.20696 3.88073,-5.57055 0,-0.36358 -1.36371,-0.38832 -3.03046,-0.055 -1.66675,0.33335 -3.03046,0.37304 -3.03046,0.0882 0,-0.28485 1.58459,-4.62093 3.52131,-9.63573 8.3789,-21.69573 20.17416,-39.92778 31.07056,-48.02606 10.9353,-8.12716 27.6651,-14.73041 43.1899,-17.04699 2.5001,-0.37307 7.9549,-2.63864 12.1218,-5.03461 9.2687,-5.32951 13.7957,-6.87497 27.9068,-9.52693 28.5737,-5.36998 59.4478,-7.40774 77.9307,-5.1436 8.6841,1.0638 11.231,1.81323 16.0752,4.73024 7.6642,4.61517 18.0465,13.05888 28.9469,23.54196 8.5669,8.23896 8.9937,8.50904 10.4104,6.58845 0.9415,-1.27634 1.2862,-3.285 0.9504,-5.53823 l -0.5268,-3.53554 1.722,3.53554 c 1.9185,3.93882 2.4303,20.2488 0.8825,28.12305 -0.8271,4.20798 -0.779,4.34012 1.1963,3.28299 2.2504,-1.20438 13.5561,-1.52137 14.6663,-0.41121 0.3796,0.37964 -0.681,1.26683 -2.357,1.97154 -1.676,0.70471 -3.0473,1.7097 -3.0473,2.23332 0,0.52362 3.9775,2.47748 8.8388,4.34192 11.9119,4.56845 17.5668,10.20754 24.4724,24.40418 5.5872,11.48612 8.1051,22.62594 8.1051,35.85973 v 7.61702 l -3.0627,-4.62381 c -2.5552,-3.85761 -6.8075,-7.84439 -8.3668,-7.84439 -0.8575,0 0.529,16.43506 2.4538,29.08656 1.1237,7.38607 1.8983,13.85875 1.7213,14.38374 -0.177,0.52498 -2.0285,-1.19975 -4.1144,-3.83276 z"
         style="opacity:1;fill:none;fill-opacity:1;stroke:none;stroke-width:1.90894973;stroke-linecap:round;stroke-linejoin:round;stroke-miterlimit:4;stroke-dasharray:3.8178995, 3.8178995;stroke-dashoffset:0;stroke-opacity:1;paint-order:markers stroke fill" />
      <path
         transform="scale(0.26458333)"
         inkscape:connector-curvature="0"
         id="path859"
         d="m 982.25265,369.16379 c -0.36197,-6.3378 -1.30032,-14.86096 -2.08521,-18.94036 -1.64241,-8.53631 -5.35331,-19.03386 -6.7285,-19.03386 -1.21739,0 -1.21408,0.0546 0.66807,11.01161 0.88311,5.14103 1.3614,9.59158 1.06287,9.89011 -0.9022,0.90219 -8.48196,-11.57248 -10.4372,-17.17743 -1.39405,-3.99623 -1.82776,-8.29569 -1.82776,-18.11896 0,-7.0837 -0.22729,-12.875 -0.50508,-12.86955 -0.27779,0.005 -1.54046,1.71007 -2.80594,3.78807 l -2.30085,3.77818 0.60261,-6.56599 c 0.33144,-3.6113 1.0466,-7.99923 1.58923,-9.75095 1.19968,-3.87278 22.10986,-24.47233 33.51441,-33.01654 40.9634,-30.68954 94.599,-45.32044 144.5033,-39.41809 l 4.892,0.5786 -3.3768,3.51238 c -5.6487,5.87556 -20.9212,17.89477 -32.9058,25.89633 -13.7646,9.18995 -30.8401,17.76742 -43.5477,21.87506 -9.2385,2.98625 -26.5882,5.71104 -28.5691,4.48679 -1.5981,-0.98772 -5.9354,0.48712 -5.9354,2.01826 0,2.18857 5.64,3.61511 14.2928,3.61511 4.3618,0 7.9305,0.41834 7.9305,0.92966 0,2.44805 -6.8702,20.06417 -12.1327,31.10987 -10.405,21.83925 -19.6695,34.29757 -32.9231,44.27246 -8.2626,6.21864 -8.82863,8.63246 -1.4105,6.01519 5.2126,-1.83912 10.3318,-5.41178 15.0052,-10.47212 1.8641,-2.01837 3.1721,-2.98791 2.9067,-2.15454 -0.2653,0.83338 -1.0685,4.13437 -1.7848,7.33555 -0.7163,3.20116 -1.797,6.18452 -2.4016,6.62967 -0.6046,0.44515 -5.563,2.04061 -11.0187,3.54545 -5.4556,1.50486 -12.90524,4.08997 -16.55467,5.7447 -3.64943,1.65473 -6.73046,3.0086 -6.84673,3.0086 -0.11627,0 -0.50757,-5.18547 -0.86955,-11.52326 z"
         style="opacity:1;fill:none;fill-opacity:1;stroke:none;stroke-width:1.90894973;stroke-linecap:round;stroke-linejoin:round;stroke-miterlimit:4;stroke-dasharray:3.8178995, 3.8178995;stroke-dashoffset:0;stroke-opacity:1;paint-order:markers stroke fill" />
    </g>
  </g>
</svg>
